{
    "asset" : {
        "generator" : "Khronos glTF Blender I/O v1.1.46",
        "version" : "2.0"
    },
    "scene" : 0,
    "scenes" : [
        {
            "name" : "Scene",
            "nodes" : [
                116
            ]
        }
    ],
    "nodes" : [
        {
            "name" : "Bone.023",
            "rotation" : [
                -0.20949864387512207,
                -9.673415402033925e-10,
                0.001223997911438346,
                0.9778081774711609
            ],
            "scale" : [
                0.9999999403953552,
                1,
                1
            ],
            "translation" : [
                -1.7178244888782501e-06,
                12.844281196594238,
                -4.9620866775512695e-06
            ]
        },
        {
            "children" : [
                0
            ],
            "name" : "Bone.022",
            "rotation" : [
                -0.5531646609306335,
                -0.029249805957078934,
                0.04716423153877258,
                0.831221342086792
            ],
            "scale" : [
                1,
                0.9999999403953552,
                0.9999998807907104
            ],
            "translation" : [
                -6.817281246185303e-07,
                46.970314025878906,
                -4.246830940246582e-07
            ]
        },
        {
            "children" : [
                1
            ],
            "name" : "Bone.021",
            "rotation" : [
                0.010171482339501381,
                0.0006326959701254964,
                0.002551816636696458,
                0.999944806098938
            ],
            "scale" : [
                1,
                1,
                0.9999999403953552
            ],
            "translation" : [
                9.387731552124023e-07,
                42.530696868896484,
                -2.1606683731079102e-07
            ]
        },
        {
            "children" : [
                2
            ],
            "name" : "Bone.020",
            "rotation" : [
                0.03242276981472969,
                -0.0006394957308657467,
                -0.05543111264705658,
                0.9979358315467834
            ],
            "scale" : [
                0.9999999403953552,
                0.9999999403953552,
                0.9999999403953552
            ],
            "translation" : [
                9.118287086486816,
                9.902210235595703,
                2.4106957425829023e-06
            ]
        },
        {
            "name" : "Bone.065",
            "rotation" : [
                0.1196741983294487,
                0.005587620660662651,
                -0.10075511038303375,
                0.9876716732978821
            ],
            "scale" : [
                1,
                0.9999999403953552,
                0.9999998807907104
            ],
            "translation" : [
                20.31059455871582,
                7.207766532897949,
                1.660091697885946e-06
            ]
        },
        {
            "name" : "Bone.027",
            "rotation" : [
                -0.20949864387512207,
                1.0283584650494504e-08,
                0.0012239996576681733,
                0.9778081774711609
            ],
            "scale" : [
                0.9999999403953552,
                1,
                0.9999999403953552
            ],
            "translation" : [
                5.969777703285217e-07,
                12.844280242919922,
                2.898275852203369e-06
            ]
        },
        {
            "children" : [
                5
            ],
            "name" : "Bone.026",
            "rotation" : [
                -0.5537983179092407,
                0.026345781981945038,
                -0.03633486106991768,
                0.8314403891563416
            ],
            "scale" : [
                0.9999999403953552,
                1,
                1
            ],
            "translation" : [
                -5.960464477539063e-08,
                46.92070007324219,
                3.203749656677246e-07
            ]
        },
        {
            "children" : [
                6
            ],
            "name" : "Bone.025",
            "rotation" : [
                0.01017638947814703,
                -0.0014325850643217564,
                0.000785273383371532,
                0.9999470114707947
            ],
            "scale" : [
                0.9999998807907104,
                0.9999998211860657,
                0.9999999403953552
            ],
            "translation" : [
                -6.556510925292969e-07,
                42.45497512817383,
                -1.087784767150879e-06
            ]
        },
        {
            "children" : [
                7
            ],
            "name" : "Bone.024",
            "rotation" : [
                0.03230692818760872,
                -0.003951516002416611,
                0.0465957373380661,
                0.9983834624290466
            ],
            "scale" : [
                1,
                0.9999999403953552,
                0.9999999403953552
            ],
            "translation" : [
                -10.131619453430176,
                9.902210235595703,
                2.4106957425829023e-06
            ]
        },
        {
            "name" : "Bone.063",
            "rotation" : [
                1.6000587521602938e-08,
                -6.617477055215204e-08,
                0.08474858850240707,
                0.9964024424552917
            ],
            "translation" : [
                -19.171998977661133,
                -2.3605175018310547,
                -2.7342551334186282e-08
            ]
        },
        {
            "name" : "Bone.064",
            "rotation" : [
                1.7477537639365437e-08,
                -8.353953973028183e-08,
                0.08474858850240707,
                0.9964024424552917
            ],
            "scale" : [
                1,
                0.9999999403953552,
                1
            ],
            "translation" : [
                -16.67714500427246,
                -0.5853318572044373,
                -8.539470286450523e-08
            ]
        },
        {
            "name" : "Bone.073",
            "rotation" : [
                6.563215304566938e-09,
                1.4333376263664377e-08,
                -0.08897461742162704,
                0.9960339069366455
            ],
            "scale" : [
                1,
                0.9999999403953552,
                1
            ],
            "translation" : [
                15.437325477600098,
                -0.5853318572044373,
                -8.539470286450523e-08
            ]
        },
        {
            "children" : [
                3,
                4,
                8,
                9,
                10,
                11
            ],
            "name" : "Bone.019",
            "rotation" : [
                1,
                0,
                0,
                5.5203390303404376e-08
            ],
            "translation" : [
                -0.20629623532295227,
                -4.437950134277344,
                -3.3991355895996094
            ]
        },
        {
            "name" : "Bone.009",
            "rotation" : [
                0.04449683427810669,
                -0.001366295269690454,
                -0.0075270384550094604,
                0.9989803433418274
            ],
            "scale" : [
                0.9999998807907104,
                0.9999999403953552,
                0.9999999403953552
            ],
            "translation" : [
                4.172325134277344e-07,
                29.975759506225586,
                -2.5331974029541016e-07
            ]
        },
        {
            "children" : [
                13
            ],
            "name" : "Bone.008",
            "rotation" : [
                -0.004734458401799202,
                -0.0014684547204524279,
                0.3690965175628662,
                0.9293779730796814
            ],
            "scale" : [
                0.9999999403953552,
                1,
                0.9999999403953552
            ],
            "translation" : [
                1.4351680874824524e-06,
                20.484447479248047,
                5.364418029785156e-07
            ]
        },
        {
            "name" : "Bone.017",
            "rotation" : [
                -0.034258533269166946,
                0.0028529821429401636,
                0.11834785342216492,
                0.992376983165741
            ],
            "scale" : [
                0.9999999403953552,
                1,
                1
            ],
            "translation" : [
                7.955947399139404,
                8.219315528869629,
                0.8666610717773438
            ]
        },
        {
            "children" : [
                14,
                15
            ],
            "name" : "Bone.004",
            "rotation" : [
                0.00937286950647831,
                -0.0871179848909378,
                0.7241209745407104,
                0.6840843558311462
            ],
            "scale" : [
                0.9999998807907104,
                1,
                0.9999999403953552
            ],
            "translation" : [
                8.422489372605924e-09,
                13.089204788208008,
                -4.6641736162200687e-07
            ]
        },
        {
            "name" : "Bone.077",
            "rotation" : [
                0.017368292436003685,
                0.011723626405000687,
                -0.02454274706542492,
                0.9994791746139526
            ],
            "translation" : [
                2.000480890274048e-06,
                2.0199949741363525,
                7.152557373046875e-07
            ]
        },
        {
            "children" : [
                17
            ],
            "name" : "Bone.076",
            "rotation" : [
                -0.10677263885736465,
                0.037880074232816696,
                -0.12603873014450073,
                0.9855348467826843
            ],
            "scale" : [
                1,
                0.9999998807907104,
                0.9999999403953552
            ],
            "translation" : [
                -5.364418029785156e-06,
                3.420187473297119,
                2.86102294921875e-06
            ]
        },
        {
            "children" : [
                18
            ],
            "name" : "Bone.075",
            "rotation" : [
                0.40515658259391785,
                0.03238099068403244,
                0.02900048717856407,
                0.9132133722305298
            ],
            "scale" : [
                0.9999999403953552,
                1.0000001192092896,
                1
            ],
            "translation" : [
                1.7172741889953613,
                4.0950469970703125,
                2.4042553901672363
            ]
        },
        {
            "name" : "Bone.080",
            "rotation" : [
                -0.02056656777858734,
                0.04026772081851959,
                0.0016360183944925666,
                0.998975932598114
            ],
            "scale" : [
                1.0000001192092896,
                0.9999999403953552,
                1.0000001192092896
            ],
            "translation" : [
                -2.0265579223632812e-06,
                2.452775001525879,
                9.5367431640625e-07
            ]
        },
        {
            "children" : [
                20
            ],
            "name" : "Bone.079",
            "rotation" : [
                0.0207060519605875,
                0.09929192811250687,
                -0.02598216012120247,
                0.9945036172866821
            ],
            "scale" : [
                1.0000001192092896,
                0.9999999403953552,
                1
            ],
            "translation" : [
                -6.4373016357421875e-06,
                3.3132131099700928,
                -1.1920928955078125e-06
            ]
        },
        {
            "children" : [
                21
            ],
            "name" : "Bone.078",
            "rotation" : [
                0.12658686935901642,
                -0.0022777197882533073,
                0.05417061224579811,
                0.9904727339744568
            ],
            "scale" : [
                0.9999998807907104,
                0.9999998807907104,
                0.9999999403953552
            ],
            "translation" : [
                0.704470157623291,
                11.214842796325684,
                2.461672782897949
            ]
        },
        {
            "name" : "Bone.083",
            "rotation" : [
                -0.027580391615629196,
                0.10610485821962357,
                -0.08779221028089523,
                0.9900876879692078
            ],
            "scale" : [
                1.0000001192092896,
                0.9999999403953552,
                1
            ],
            "translation" : [
                5.662441253662109e-06,
                3.0687813758850098,
                -7.152557373046875e-07
            ]
        },
        {
            "children" : [
                23
            ],
            "name" : "Bone.082",
            "rotation" : [
                0.005957798101007938,
                0.10508093982934952,
                0.009432821534574032,
                0.9944010972976685
            ],
            "scale" : [
                1.0000001192092896,
                1,
                0.9999999403953552
            ],
            "translation" : [
                1.6689300537109375e-06,
                3.24397611618042,
                4.76837158203125e-07
            ]
        },
        {
            "children" : [
                24
            ],
            "name" : "Bone.081",
            "rotation" : [
                0.057253994047641754,
                -0.008561996743083,
                0.07358019053936005,
                0.9956076741218567
            ],
            "scale" : [
                1,
                1,
                1.0000001192092896
            ],
            "translation" : [
                0.14427900314331055,
                11.245579719543457,
                0.21127092838287354
            ]
        },
        {
            "name" : "Bone.086",
            "rotation" : [
                0.01916908472776413,
                0.1313708871603012,
                0.029161185026168823,
                0.9907189607620239
            ],
            "scale" : [
                0.9999999403953552,
                0.9999999403953552,
                0.9999998807907104
            ],
            "translation" : [
                -4.291534423828125e-06,
                2.5519442558288574,
                -4.76837158203125e-07
            ]
        },
        {
            "children" : [
                26
            ],
            "name" : "Bone.085",
            "rotation" : [
                -0.044451892375946045,
                0.0997457206249237,
                -0.054755281656980515,
                0.9925103783607483
            ],
            "translation" : [
                4.5299530029296875e-06,
                3.049438953399658,
                -1.7881393432617188e-06
            ]
        },
        {
            "children" : [
                27
            ],
            "name" : "Bone.084",
            "rotation" : [
                -0.08958882838487625,
                -0.02467045560479164,
                0.08233362436294556,
                0.9922632575035095
            ],
            "scale" : [
                0.9999998807907104,
                1,
                1
            ],
            "translation" : [
                -0.7689316272735596,
                10.7512845993042,
                -1.6620906591415405
            ]
        },
        {
            "name" : "Bone.089",
            "rotation" : [
                0.059839192777872086,
                0.18500815331935883,
                0.00648764381185174,
                0.98089200258255
            ],
            "scale" : [
                0.9999999403953552,
                1,
                1
            ],
            "translation" : [
                4.0531158447265625e-06,
                1.1585659980773926,
                -1.1920928955078125e-06
            ]
        },
        {
            "children" : [
                29
            ],
            "name" : "Bone.088",
            "rotation" : [
                -0.12945276498794556,
                0.04460660740733147,
                0.006176318973302841,
                0.9905626177787781
            ],
            "scale" : [
                1.0000001192092896,
                1.0000001192092896,
                0.9999999403953552
            ],
            "translation" : [
                4.76837158203125e-07,
                2.720693349838257,
                2.384185791015625e-07
            ]
        },
        {
            "children" : [
                30
            ],
            "name" : "Bone.087",
            "rotation" : [
                -0.07978514581918716,
                -0.0390305258333683,
                0.023641882464289665,
                0.9957670569419861
            ],
            "scale" : [
                0.9999999403953552,
                0.9999999403953552,
                1
            ],
            "translation" : [
                -1.1633343696594238,
                10.462746620178223,
                -3.955474853515625
            ]
        },
        {
            "name" : "Bone.092",
            "rotation" : [
                -0.00017389070126228034,
                0.01799783669412136,
                0.014446159824728966,
                0.9997336864471436
            ],
            "scale" : [
                1.0000001192092896,
                1,
                1
            ],
            "translation" : [
                -9.5367431640625e-07,
                2.055356025695801,
                -2.1457672119140625e-06
            ]
        },
        {
            "children" : [
                32
            ],
            "name" : "Bone.091",
            "rotation" : [
                -0.16942422091960907,
                -0.16318432986736298,
                0.010510518215596676,
                0.9718826413154602
            ],
            "scale" : [
                0.9999998807907104,
                0.9999999403953552,
                0.9999999403953552
            ],
            "translation" : [
                -3.0994415283203125e-06,
                3.6219022274017334,
                -1.0728836059570312e-06
            ]
        },
        {
            "children" : [
                33
            ],
            "name" : "Bone.090",
            "rotation" : [
                0.5842312574386597,
                0.25214195251464844,
                -0.4781201183795929,
                0.6053920388221741
            ],
            "translation" : [
                90.88594818115234,
                -72.55171203613281,
                -20.83933448791504
            ]
        },
        {
            "name" : "Bone.095",
            "rotation" : [
                -0.0037261054385453463,
                0.0011026773136109114,
                -0.07354013621807098,
                0.9972847104072571
            ],
            "scale" : [
                1.0000001192092896,
                1,
                1.0000001192092896
            ],
            "translation" : [
                4.0531158447265625e-06,
                2.253403902053833,
                -3.337860107421875e-06
            ]
        },
        {
            "children" : [
                35
            ],
            "name" : "Bone.094",
            "rotation" : [
                0.009576940909028053,
                0.1367277204990387,
                0.10361562669277191,
                0.9851282238960266
            ],
            "scale" : [
                0.9999999403953552,
                0.9999998807907104,
                0.9999998807907104
            ],
            "translation" : [
                1.5497207641601562e-06,
                3.5413875579833984,
                -5.960464477539062e-07
            ]
        },
        {
            "children" : [
                36
            ],
            "name" : "Bone.093",
            "rotation" : [
                0.06061127409338951,
                0.09376265108585358,
                -0.720027506351471,
                0.6849052906036377
            ],
            "scale" : [
                0.9999998211860657,
                1,
                0.9999999403953552
            ],
            "translation" : [
                97.81368255615234,
                -72.25737762451172,
                -22.851781845092773
            ]
        },
        {
            "name" : "Bone.098",
            "rotation" : [
                -0.03880307823419571,
                0.03364936262369156,
                0.014313329942524433,
                0.9985775947570801
            ],
            "scale" : [
                1,
                0.9999998807907104,
                1
            ],
            "translation" : [
                2.86102294921875e-06,
                2.754173994064331,
                -8.344650268554688e-07
            ]
        },
        {
            "children" : [
                38
            ],
            "name" : "Bone.097",
            "rotation" : [
                0.005963472183793783,
                0.11686542630195618,
                0.003455249359831214,
                0.9931239485740662
            ],
            "scale" : [
                1,
                0.9999998807907104,
                1
            ],
            "translation" : [
                5.245208740234375e-06,
                3.0046756267547607,
                -2.980232238769531e-07
            ]
        },
        {
            "children" : [
                39
            ],
            "name" : "Bone.096",
            "rotation" : [
                -0.09651073813438416,
                0.025142619386315346,
                -0.6711018085479736,
                0.7346264123916626
            ],
            "translation" : [
                97.87457275390625,
                -72.76049041748047,
                -25.26407814025879
            ]
        },
        {
            "name" : "Bone.101",
            "rotation" : [
                0.00036562615423463285,
                0.15182563662528992,
                -0.06253500282764435,
                0.9864270091056824
            ],
            "scale" : [
                0.9999999403953552,
                0.9999998807907104,
                1.0000001192092896
            ],
            "translation" : [
                -2.86102294921875e-06,
                2.511016368865967,
                0
            ]
        },
        {
            "children" : [
                41
            ],
            "name" : "Bone.100",
            "rotation" : [
                0.0208587609231472,
                0.06923097372055054,
                0.08822963386774063,
                0.9934725165367126
            ],
            "translation" : [
                -2.86102294921875e-06,
                3.109659433364868,
                9.5367431640625e-07
            ]
        },
        {
            "children" : [
                42
            ],
            "name" : "Bone.099",
            "rotation" : [
                -0.39403149485588074,
                -0.10152940452098846,
                -0.5646618604660034,
                0.7180445790290833
            ],
            "scale" : [
                1.0000001192092896,
                1,
                1
            ],
            "translation" : [
                96.61830139160156,
                -72.51058959960938,
                -27.048011779785156
            ]
        },
        {
            "name" : "Bone.104",
            "rotation" : [
                -0.06716322898864746,
                0.23491625487804413,
                -0.02024286426603794,
                0.9694812297821045
            ],
            "scale" : [
                0.9999999403953552,
                0.9999998807907104,
                1
            ],
            "translation" : [
                -2.86102294921875e-06,
                1.2238469123840332,
                -2.86102294921875e-06
            ]
        },
        {
            "children" : [
                44
            ],
            "name" : "Bone.103",
            "rotation" : [
                0.0007622274570167065,
                -0.1298438459634781,
                0.008050153963267803,
                0.99150151014328
            ],
            "scale" : [
                1,
                0.9999999403953552,
                0.9999999403953552
            ],
            "translation" : [
                -1.9073486328125e-06,
                2.7849345207214355,
                9.5367431640625e-07
            ]
        },
        {
            "children" : [
                45
            ],
            "name" : "Bone.102",
            "rotation" : [
                -0.3511573374271393,
                -0.06058693304657936,
                -0.551771342754364,
                0.7540332674980164
            ],
            "scale" : [
                1,
                0.9999999403953552,
                1.0000001192092896
            ],
            "translation" : [
                95.4104995727539,
                -72.54926300048828,
                -29.129369735717773
            ]
        },
        {
            "children" : [
                19,
                22,
                25,
                28,
                31,
                34,
                37,
                40,
                43,
                46
            ],
            "name" : "Bone.074",
            "rotation" : [
                -0.009226973168551922,
                1.4538362336224964e-07,
                -0.035397518426179886,
                0.9993307590484619
            ],
            "scale" : [
                0.9999999403953552,
                1,
                0.9999999403953552
            ],
            "translation" : [
                -1.430511474609375e-06,
                27.524749755859375,
                8.344650268554688e-07
            ]
        },
        {
            "children" : [
                47
            ],
            "name" : "Bone.007",
            "rotation" : [
                0.036018434911966324,
                0.0006195845198817551,
                -0.015107597224414349,
                0.9992367625236511
            ],
            "scale" : [
                0.9999998807907104,
                0.9999998807907104,
                1
            ],
            "translation" : [
                -7.152557373046875e-07,
                27.80800437927246,
                1.1641532182693481e-07
            ]
        },
        {
            "children" : [
                48
            ],
            "name" : "Bone.006",
            "rotation" : [
                -0.02382688783109188,
                0.015376603230834007,
                -0.3495173752307892,
                0.9365006685256958
            ],
            "translation" : [
                -1.0728836059570312e-06,
                19.626251220703125,
                -4.76837158203125e-07
            ]
        },
        {
            "name" : "Bone.018",
            "rotation" : [
                0.05401267111301422,
                0.5846980810165405,
                -0.10585760325193405,
                0.8024993538856506
            ],
            "scale" : [
                1,
                1.0000001192092896,
                1
            ],
            "translation" : [
                -7.644105434417725,
                7.9616169929504395,
                3.034113645553589
            ]
        },
        {
            "children" : [
                49,
                50
            ],
            "name" : "Bone.005",
            "rotation" : [
                -0.08837241679430008,
                0.05431652069091797,
                -0.7197141051292419,
                0.6864777207374573
            ],
            "scale" : [
                0.9999998807907104,
                0.9999998807907104,
                1
            ],
            "translation" : [
                8.422489372605924e-09,
                13.089204788208008,
                -4.6641736162200687e-07
            ]
        },
        {
            "name" : "Bone.030",
            "rotation" : [
                -4.4703490686970326e-08,
                -1.4998867925442028e-08,
                1.624523182641724e-09,
                1
            ],
            "scale" : [
                1,
                0.9999999403953552,
                0.9999999403953552
            ],
            "translation" : [
                1.469203198212199e-06,
                -0.2912601828575134,
                -1.9717854261398315
            ]
        },
        {
            "name" : "Bone.045",
            "rotation" : [
                -0.3793691098690033,
                -0.2989388406276703,
                -0.7387264966964722,
                0.47010400891304016
            ],
            "scale" : [
                0.9999999403953552,
                0.9999999403953552,
                0.9999999403953552
            ],
            "translation" : [
                0.3561704754829407,
                6.733696937561035,
                -3.6563942432403564
            ]
        },
        {
            "name" : "Bone.046",
            "rotation" : [
                0.2644690275192261,
                -0.133894145488739,
                0.7815778255462646,
                0.5488758087158203
            ],
            "scale" : [
                0.9999999403953552,
                1,
                0.9999999403953552
            ],
            "translation" : [
                -0.621282696723938,
                6.733695983886719,
                -3.6563987731933594
            ]
        },
        {
            "children" : [
                52,
                53,
                54
            ],
            "name" : "Bone.028",
            "rotation" : [
                0.8001619577407837,
                -0.009868626482784748,
                -0.007395441643893719,
                0.5996572375297546
            ],
            "scale" : [
                0.9999999403953552,
                0.9999999403953552,
                0.9999998807907104
            ],
            "translation" : [
                0.0029710624366998672,
                0.12044684588909149,
                1.596720576286316
            ]
        },
        {
            "name" : "Bone.029",
            "rotation" : [
                0.7596966624259949,
                -0.009369006380438805,
                -0.008017722517251968,
                0.6501607894897461
            ],
            "scale" : [
                0.9999999403953552,
                0.9999999403953552,
                0.9999999403953552
            ],
            "translation" : [
                0.12274738401174545,
                4.975461959838867,
                2.273437261581421
            ]
        },
        {
            "name" : "Bone.031",
            "rotation" : [
                0.40713971853256226,
                0.564195454120636,
                -0.6471365690231323,
                0.31166499853134155
            ],
            "scale" : [
                1,
                1.0000001192092896,
                1.0000001192092896
            ],
            "translation" : [
                1.4714021682739258,
                10.749682426452637,
                8.225342750549316
            ]
        },
        {
            "name" : "Bone.032",
            "rotation" : [
                0.1772545576095581,
                -0.45074692368507385,
                0.7304849624633789,
                0.4814560115337372
            ],
            "scale" : [
                0.9999999403953552,
                0.9999998807907104,
                0.9999999403953552
            ],
            "translation" : [
                -1.8871395587921143,
                10.832539558410645,
                8.225341796875
            ]
        },
        {
            "name" : "Bone.033",
            "rotation" : [
                0.1772545427083969,
                -0.45074689388275146,
                0.7304849028587341,
                0.48145613074302673
            ],
            "scale" : [
                0.9999997615814209,
                0.9999997615814209,
                0.9999998211860657
            ],
            "translation" : [
                -1.9723985195159912,
                7.376652240753174,
                7.896408557891846
            ]
        },
        {
            "name" : "Bone.034",
            "rotation" : [
                0.40751293301582336,
                0.5640333294868469,
                -0.6467425227165222,
                0.3122880756855011
            ],
            "scale" : [
                0.9999998807907104,
                0.9999998807907104,
                0.9999999403953552
            ],
            "translation" : [
                1.6128225326538086,
                7.288202285766602,
                7.896409511566162
            ]
        },
        {
            "name" : "Bone.040",
            "rotation" : [
                0.26109248399734497,
                -0.023111725226044655,
                -0.1989264041185379,
                0.9443118572235107
            ],
            "scale" : [
                1.0000001192092896,
                0.9999999403953552,
                1
            ],
            "translation" : [
                1.1920928955078125e-07,
                2.5849497318267822,
                -2.4437904357910156e-06
            ]
        },
        {
            "children" : [
                61
            ],
            "name" : "Bone.035",
            "rotation" : [
                0.48056405782699585,
                0.5347971320152283,
                -0.5532448291778564,
                0.42067864537239075
            ],
            "scale" : [
                1.0000001192092896,
                0.9999999403953552,
                1
            ],
            "translation" : [
                1.5613176822662354,
                9.703607559204102,
                7.233430862426758
            ]
        },
        {
            "name" : "Bone.041",
            "rotation" : [
                0.13793881237506866,
                -0.0705108642578125,
                0.3064684271812439,
                0.9391902089118958
            ],
            "scale" : [
                0.9999999403953552,
                0.9999999403953552,
                0.9999998211860657
            ],
            "translation" : [
                1.341104507446289e-06,
                2.6897706985473633,
                -2.130866050720215e-06
            ]
        },
        {
            "children" : [
                63
            ],
            "name" : "Bone.036",
            "rotation" : [
                0.31042423844337463,
                -0.37077489495277405,
                0.6335091590881348,
                0.6040107607841492
            ],
            "scale" : [
                0.9999999403953552,
                1,
                0.9999999403953552
            ],
            "translation" : [
                -2.1891939640045166,
                9.659131050109863,
                7.236903190612793
            ]
        },
        {
            "name" : "Bone.042",
            "rotation" : [
                -0.2661329507827759,
                -0.023009061813354492,
                0.07275575399398804,
                0.9609112739562988
            ],
            "scale" : [
                1.0000001192092896,
                1,
                0.9999999403953552
            ],
            "translation" : [
                -1.996755599975586e-06,
                2.6897716522216797,
                -3.9637088775634766e-06
            ]
        },
        {
            "children" : [
                65
            ],
            "name" : "Bone.037",
            "rotation" : [
                0.310424268245697,
                -0.37077489495277405,
                0.6335091590881348,
                0.6040107011795044
            ],
            "scale" : [
                1,
                1,
                0.9999999403953552
            ],
            "translation" : [
                -2.1554362773895264,
                8.32561206817627,
                7.270693778991699
            ]
        },
        {
            "name" : "Bone.039",
            "rotation" : [
                -0.21743863821029663,
                0.041241370141506195,
                -0.22492724657058716,
                0.9489085078239441
            ],
            "scale" : [
                0.9999998807907104,
                1,
                1
            ],
            "translation" : [
                1.7881393432617188e-07,
                2.5849497318267822,
                1.5348196029663086e-06
            ]
        },
        {
            "children" : [
                67
            ],
            "name" : "Bone.038",
            "rotation" : [
                0.48056402802467346,
                0.5347970724105835,
                -0.5532448291778564,
                0.42067867517471313
            ],
            "scale" : [
                1,
                0.9999999403953552,
                1
            ],
            "translation" : [
                1.5218876600265503,
                8.105348587036133,
                7.273978233337402
            ]
        },
        {
            "name" : "Bone.043",
            "rotation" : [
                0.47259610891342163,
                -0.5824403762817383,
                0.5613486766815186,
                0.3497197926044464
            ],
            "scale" : [
                0.9999997019767761,
                0.9999995231628418,
                0.9999998211860657
            ],
            "translation" : [
                -0.3591618239879608,
                2.814826250076294,
                9.059041023254395
            ]
        },
        {
            "name" : "Bone.044",
            "rotation" : [
                0.16751645505428314,
                0.3718147575855255,
                -0.7471985816955566,
                0.5247727632522583
            ],
            "scale" : [
                0.9999998807907104,
                0.9999999403953552,
                0.9999998807907104
            ],
            "translation" : [
                0.1449325680732727,
                2.8345253467559814,
                9.058225631713867
            ]
        },
        {
            "mesh" : 1,
            "name" : "lib_rus_tankcrew.001",
            "rotation" : [
                0.7071068286895752,
                0,
                0,
                0.7071068286895752
            ],
            "translation" : [
                0,
                -183.29058837890625,
                0
            ]
        },
        {
            "children" : [
                71
            ],
            "name" : "Empty",
            "rotation" : [
                -0.012677106074988842,
                0.0001562146790092811,
                -0.012331537902355194,
                0.9998437166213989
            ],
            "translation" : [
                0.7659016847610474,
                22.680477142333984,
                1.432889699935913
            ]
        },
        {
            "name" : "Empty.001",
            "rotation" : [
                -0.012677106074988842,
                0.0001562146790092811,
                -0.012331537902355194,
                0.9998437166213989
            ],
            "translation" : [
                2.992034912109375,
                8.956028461456299,
                5.847166538238525
            ]
        },
        {
            "mesh" : 2,
            "name" : "lib_rus_tankcrew.008",
            "rotation" : [
                0.7071068286895752,
                0,
                0,
                0.7071068286895752
            ],
            "translation" : [
                3.9024503231048584,
                -169.51768493652344,
                -4.0663838386535645
            ]
        },
        {
            "children" : [
                74
            ],
            "name" : "Empty.002",
            "rotation" : [
                -0.012677106074988842,
                0.0001562146790092811,
                -0.012331537902355194,
                0.9998437166213989
            ],
            "translation" : [
                -3.4723944664001465,
                9.1155104637146,
                5.847165107727051
            ]
        },
        {
            "children" : [
                55,
                56,
                57,
                58,
                59,
                60,
                62,
                64,
                66,
                68,
                69,
                70,
                72,
                73,
                75
            ],
            "name" : "Bone.016",
            "rotation" : [
                -0.13078971207141876,
                0.0016131094889715314,
                0.012226540595293045,
                0.9913334250450134
            ],
            "scale" : [
                0.9999999403953552,
                0.9999998807907104,
                1
            ],
            "translation" : [
                -9.272667966797599e-09,
                4.903378009796143,
                -1.6839415195590846e-07
            ]
        },
        {
            "children" : [
                76
            ],
            "name" : "Bone.015",
            "rotation" : [
                0.018659144639968872,
                1.4213328051407986e-14,
                4.448682755509026e-09,
                0.9998259544372559
            ],
            "translation" : [
                -1.0997496247000527e-09,
                6.970733642578125,
                -2.87603427295835e-07
            ]
        },
        {
            "children" : [
                77
            ],
            "name" : "Bone.014",
            "rotation" : [
                0.19019903242588043,
                2.7140792749764638e-15,
                4.5346983057470425e-08,
                0.9817455410957336
            ],
            "translation" : [
                8.422489372605924e-09,
                13.089204788208008,
                -4.6641736162200687e-07
            ]
        },
        {
            "name" : "Bone.052",
            "rotation" : [
                -0.14798292517662048,
                -6.818130504626652e-10,
                -3.983858221090486e-08,
                0.9889900088310242
            ],
            "scale" : [
                1,
                0.9999999403953552,
                0.9999999403953552
            ],
            "translation" : [
                7.596508979797363,
                1.9111173152923584,
                10.640504837036133
            ]
        },
        {
            "name" : "Bone.053",
            "rotation" : [
                -0.14798292517662048,
                -6.818130504626652e-10,
                -3.983858221090486e-08,
                0.9889900088310242
            ],
            "scale" : [
                1,
                0.9999999403953552,
                0.9999999403953552
            ],
            "translation" : [
                -8.66269302368164,
                1.9111173152923584,
                10.640501022338867
            ]
        },
        {
            "children" : [
                16,
                51,
                78,
                79,
                80
            ],
            "name" : "Bone.003",
            "rotation" : [
                -0.06612285226583481,
                -3.560505958398767e-15,
                -1.5764916483362867e-08,
                0.997811496257782
            ],
            "scale" : [
                1,
                1.0000001192092896,
                1
            ],
            "translation" : [
                5.754372978117317e-09,
                12.104241371154785,
                -4.918485529969985e-08
            ]
        },
        {
            "name" : "Bone.012",
            "rotation" : [
                -1.0757682744610975e-08,
                -8.782664373541138e-09,
                0.046848662197589874,
                0.9989020228385925
            ],
            "scale" : [
                1,
                1.0000001192092896,
                1
            ],
            "translation" : [
                -14.647647857666016,
                0.12436103820800781,
                -2.110944706146256e-06
            ]
        },
        {
            "name" : "Bone.047",
            "rotation" : [
                -3.3099353813348387e-10,
                9.620205787541636e-08,
                0.0034405875485390425,
                0.9999940991401672
            ],
            "translation" : [
                0.07478712499141693,
                0.12436103820800781,
                13.713703155517578
            ]
        },
        {
            "name" : "Bone.048",
            "rotation" : [
                -3.330247536070807e-11,
                1.1336724448085533e-08,
                0.002937562530860305,
                0.999995768070221
            ],
            "scale" : [
                0.9999999403953552,
                1,
                1
            ],
            "translation" : [
                0.07478839159011841,
                0.12436103820800781,
                8.407722473144531
            ]
        },
        {
            "name" : "Bone.013",
            "rotation" : [
                1.1731253302116329e-08,
                -2.7222917253766354e-08,
                -0.0555579774081707,
                0.9984554648399353
            ],
            "translation" : [
                14.36936092376709,
                0.12436103820800781,
                4.8072492973005865e-06
            ]
        },
        {
            "name" : "Bone.049",
            "rotation" : [
                -2.4309423363177984e-09,
                5.667294189493077e-08,
                0.04285482317209244,
                0.9990813136100769
            ],
            "scale" : [
                0.9999999403953552,
                1,
                1
            ],
            "translation" : [
                -0.6748696565628052,
                6.801297187805176,
                17.911775588989258
            ]
        },
        {
            "name" : "Bone.050",
            "rotation" : [
                2.5624792954204167e-08,
                1.2962364337454346e-07,
                -0.19393296539783478,
                0.9810147881507874
            ],
            "translation" : [
                7.121551036834717,
                8.833695411682129,
                13.380524635314941
            ]
        },
        {
            "name" : "Bone.051",
            "rotation" : [
                -4.2998067328881007e-08,
                1.8199757789716386e-07,
                0.22992649674415588,
                0.9732080101966858
            ],
            "translation" : [
                -8.604560852050781,
                8.833695411682129,
                13.380520820617676
            ]
        },
        {
            "name" : "Bone.054",
            "rotation" : [
                -1.119030201834903e-09,
                5.714733930517468e-08,
                0.019577737897634506,
                0.9998083710670471
            ],
            "translation" : [
                -5.0028815269470215,
                10.5195894241333,
                13.713703155517578
            ]
        },
        {
            "children" : [
                81,
                82,
                83,
                84,
                85,
                86,
                87,
                88,
                89
            ],
            "name" : "Bone.002",
            "translation" : [
                5.754372978117317e-09,
                10.446122169494629,
                -4.918485529969985e-08
            ]
        },
        {
            "name" : "Bone.010",
            "translation" : [
                14.300271034240723,
                0,
                3.360265509400051e-06
            ]
        },
        {
            "name" : "Bone.011",
            "translation" : [
                -14.578559875488281,
                0,
                -3.5249843222118216e-06
            ]
        },
        {
            "children" : [
                90,
                91,
                92
            ],
            "name" : "Bone.001",
            "rotation" : [
                0,
                7.105427357601002e-15,
                0,
                1
            ],
            "translation" : [
                5.754316134698456e-09,
                3.8386919498443604,
                -4.918485174698617e-08
            ]
        },
        {
            "name" : "Bone.056",
            "rotation" : [
                1.6456658258334755e-08,
                -3.0192037314691333e-08,
                -0.07820934802293777,
                0.9969369769096375
            ],
            "scale" : [
                1,
                1.0000001192092896,
                1
            ],
            "translation" : [
                -17.008140563964844,
                1.503566026687622,
                -0.062186531722545624
            ]
        },
        {
            "name" : "Bone.057",
            "rotation" : [
                -5.790382573422903e-08,
                1.6489217102844123e-07,
                0.14359153807163239,
                0.989637017250061
            ],
            "translation" : [
                16.06251335144043,
                1.2636747360229492,
                -0.06217864528298378
            ]
        },
        {
            "name" : "Bone.058",
            "rotation" : [
                0,
                7.105427357601002e-15,
                0,
                1
            ],
            "translation" : [
                -13.209887504577637,
                0.37186098098754883,
                6.53542947769165
            ]
        },
        {
            "name" : "Bone.059",
            "rotation" : [
                0,
                7.105427357601002e-15,
                0,
                1
            ],
            "translation" : [
                11.450793266296387,
                0.37186098098754883,
                6.829174995422363
            ]
        },
        {
            "name" : "Bone.060",
            "rotation" : [
                8.614137736451255e-10,
                2.3810196481122148e-08,
                -0.036154698580503464,
                0.9993461966514587
            ],
            "scale" : [
                1,
                1.0000001192092896,
                1
            ],
            "translation" : [
                -16.84821128845215,
                1.7952115535736084,
                -5.160006046295166
            ]
        },
        {
            "name" : "Bone.061",
            "rotation" : [
                0.09636542946100235,
                -0.018629522994160652,
                0.18889038264751434,
                0.9770809412002563
            ],
            "scale" : [
                0.9999999403953552,
                1,
                1
            ],
            "translation" : [
                17.744586944580078,
                0.9156110286712646,
                -6.083831310272217
            ]
        },
        {
            "name" : "Bone.062",
            "rotation" : [
                0,
                7.105427357601002e-15,
                0,
                1
            ],
            "translation" : [
                0.19324931502342224,
                2.6748046875,
                -13.200790405273438
            ]
        },
        {
            "name" : "Bone.070",
            "rotation" : [
                -4.529058017510579e-08,
                8.100272452793433e-08,
                0.13714376091957092,
                0.9905511736869812
            ],
            "scale" : [
                0.9999999403953552,
                1,
                1
            ],
            "translation" : [
                16.190357208251953,
                1.2636747360229492,
                3.2684197425842285
            ]
        },
        {
            "name" : "Bone.066",
            "rotation" : [
                -0.06526295840740204,
                0.002035339828580618,
                -0.0487864650785923,
                0.9966727495193481
            ],
            "scale" : [
                1,
                0.9999999403953552,
                1
            ],
            "translation" : [
                -0.19396960735321045,
                1.3039244413375854,
                -0.4156922698020935
            ]
        },
        {
            "children" : [
                102
            ],
            "name" : "Bone.068",
            "rotation" : [
                -0.9594452381134033,
                -0.020302895456552505,
                0.2738649845123291,
                0.06364354491233826
            ],
            "scale" : [
                0.9999999403953552,
                0.9999999403953552,
                0.9999876618385315
            ],
            "translation" : [
                0.2968579828739166,
                -1.570976734161377,
                0.3751533329486847
            ]
        },
        {
            "children" : [
                103
            ],
            "name" : "Bone.071",
            "rotation" : [
                -1.613854649917812e-08,
                1.2828786566387862e-07,
                0.12481570243835449,
                0.9921799302101135
            ],
            "translation" : [
                17.0233097076416,
                -2.736356258392334,
                3.7015540599823
            ]
        },
        {
            "name" : "Bone.067",
            "rotation" : [
                0.0865858793258667,
                -0.03283920884132385,
                0.0039380756206810474,
                0.9956952333450317
            ],
            "scale" : [
                1,
                1,
                0.9999999403953552
            ],
            "translation" : [
                0.03661847114562988,
                1.7345858812332153,
                0.1372484564781189
            ]
        },
        {
            "children" : [
                105
            ],
            "name" : "Bone.069",
            "rotation" : [
                -0.9596555233001709,
                -0.002788878045976162,
                0.27266058325767517,
                0.06862833350896835
            ],
            "scale" : [
                1.000000238418579,
                1,
                1.0000035762786865
            ],
            "translation" : [
                -0.2827243208885193,
                -1.9768025875091553,
                -0.8520609140396118
            ]
        },
        {
            "children" : [
                106
            ],
            "name" : "Bone.072",
            "rotation" : [
                -2.1410434314361737e-08,
                1.482900842120216e-07,
                0.14290031790733337,
                0.9897370934486389
            ],
            "scale" : [
                1,
                1.0000001192092896,
                1
            ],
            "translation" : [
                18.189443588256836,
                -1.7645764350891113,
                -7.121262073516846
            ]
        },
        {
            "children" : [
                93,
                94,
                95,
                96,
                97,
                98,
                99,
                100,
                101,
                104,
                107
            ],
            "name" : "Bone",
            "rotation" : [
                0,
                -7.105427357601002e-15,
                0,
                1
            ],
            "scale" : [
                1,
                0.9999999403953552,
                1
            ],
            "translation" : [
                2.5985564207076095e-06,
                -0.057573795318603516,
                -10.881406784057617
            ]
        },
        {
            "children" : [
                108
            ],
            "name" : "Bone.055",
            "rotation" : [
                0,
                1.1920928955078125e-07,
                0,
                1
            ],
            "translation" : [
                -0.20629623532295227,
                -4.38037633895874,
                7.482271194458008
            ]
        },
        {
            "mesh" : 0,
            "name" : "lib_rus_tankcrew.002",
            "skin" : 0
        },
        {
            "mesh" : 3,
            "name" : "lib_rus_tankcrew.003",
            "skin" : 0
        },
        {
            "mesh" : 4,
            "name" : "lib_rus_tankcrew.005",
            "skin" : 0
        },
        {
            "mesh" : 5,
            "name" : "lib_rus_tankcrew.006",
            "skin" : 0
        },
        {
            "mesh" : 6,
            "name" : "lib_rus_tankcrew.007",
            "skin" : 0
        },
        {
            "mesh" : 7,
            "name" : "lib_rus_tankcrew.009",
            "skin" : 0
        },
        {
            "children" : [
                110,
                111,
                112,
                113,
                114,
                115,
                12,
                109
            ],
            "name" : "Armature",
            "translation" : [
                0,
                114.2607192993164,
                0
            ]
        }
    ],
    "materials" : [
        {
            "doubleSided" : true,
            "emissiveFactor" : [
                0,
                0,
                0
            ],
            "name" : "Material.005",
            "pbrMetallicRoughness" : {
                "baseColorTexture" : {
                    "index" : 0,
                    "texCoord" : 0
                },
                "metallicFactor" : 0,
                "roughnessFactor" : 0.5
            }
        },
        {
            "doubleSided" : true,
            "emissiveFactor" : [
                0,
                0,
                0
            ],
            "name" : "Material.001",
            "pbrMetallicRoughness" : {
                "baseColorTexture" : {
                    "index" : 1,
                    "texCoord" : 0
                },
                "metallicFactor" : 0,
                "roughnessFactor" : 0.5
            }
        },
        {
            "doubleSided" : true,
            "emissiveFactor" : [
                0,
                0,
                0
            ],
            "name" : "Material.009",
            "pbrMetallicRoughness" : {
                "baseColorTexture" : {
                    "index" : 2,
                    "texCoord" : 0
                },
                "metallicFactor" : 0,
                "roughnessFactor" : 0.5
            }
        },
        {
            "doubleSided" : true,
            "emissiveFactor" : [
                0,
                0,
                0
            ],
            "name" : "Material.002",
            "pbrMetallicRoughness" : {
                "baseColorTexture" : {
                    "index" : 3,
                    "texCoord" : 0
                },
                "metallicFactor" : 0,
                "roughnessFactor" : 0.5
            }
        },
        {
            "doubleSided" : true,
            "emissiveFactor" : [
                0,
                0,
                0
            ],
            "name" : "Default OBJ",
            "pbrMetallicRoughness" : {
                "baseColorTexture" : {
                    "index" : 4,
                    "texCoord" : 0
                },
                "metallicFactor" : 0,
                "roughnessFactor" : 0.5
            }
        },
        {
            "doubleSided" : true,
            "emissiveFactor" : [
                0,
                0,
                0
            ],
            "name" : "Material.004",
            "pbrMetallicRoughness" : {
                "baseColorTexture" : {
                    "index" : 5,
                    "texCoord" : 0
                },
                "metallicFactor" : 0,
                "roughnessFactor" : 0.5
            }
        },
        {
            "doubleSided" : true,
            "emissiveFactor" : [
                0,
                0,
                0
            ],
            "name" : "Material.006",
            "pbrMetallicRoughness" : {
                "baseColorTexture" : {
                    "index" : 6,
                    "texCoord" : 0
                },
                "metallicFactor" : 0,
                "roughnessFactor" : 0.5
            }
        }
    ],
    "meshes" : [
        {
            "name" : "lib_rus_tankcrew.003",
            "primitives" : [
                {
                    "attributes" : {
                        "POSITION" : 0,
                        "NORMAL" : 1,
                        "TEXCOORD_0" : 2,
                        "JOINTS_0" : 3,
                        "WEIGHTS_0" : 4
                    },
                    "indices" : 5,
                    "material" : 0
                }
            ]
        },
        {
            "name" : "lib_rus_tankcrew.001",
            "primitives" : [
                {
                    "attributes" : {
                        "POSITION" : 7,
                        "NORMAL" : 8,
                        "TEXCOORD_0" : 9
                    },
                    "indices" : 10,
                    "material" : 1
                }
            ]
        },
        {
            "name" : "lib_rus_tankcrew.009",
            "primitives" : [
                {
                    "attributes" : {
                        "POSITION" : 11,
                        "NORMAL" : 12,
                        "TEXCOORD_0" : 13
                    },
                    "indices" : 14,
                    "material" : 2
                }
            ]
        },
        {
            "name" : "lib_rus_tankcrew.002",
            "primitives" : [
                {
                    "attributes" : {
                        "POSITION" : 15,
                        "NORMAL" : 16,
                        "TEXCOORD_0" : 17,
                        "JOINTS_0" : 18,
                        "WEIGHTS_0" : 19
                    },
                    "indices" : 20,
                    "material" : 3
                }
            ]
        },
        {
            "name" : "lib_rus_tankcrew.005",
            "primitives" : [
                {
                    "attributes" : {
                        "POSITION" : 21,
                        "NORMAL" : 22,
                        "TEXCOORD_0" : 23,
                        "JOINTS_0" : 24,
                        "WEIGHTS_0" : 25
                    },
                    "indices" : 26,
                    "material" : 4
                }
            ]
        },
        {
            "name" : "lib_rus_tankcrew.007",
            "primitives" : [
                {
                    "attributes" : {
                        "POSITION" : 27,
                        "NORMAL" : 28,
                        "TEXCOORD_0" : 29,
                        "JOINTS_0" : 30,
                        "WEIGHTS_0" : 31
                    },
                    "indices" : 32,
                    "material" : 5
                }
            ]
        },
        {
            "name" : "lib_rus_tankcrew.008",
            "primitives" : [
                {
                    "attributes" : {
                        "POSITION" : 33,
                        "NORMAL" : 34,
                        "TEXCOORD_0" : 35,
                        "JOINTS_0" : 36,
                        "WEIGHTS_0" : 37
                    },
                    "indices" : 38,
                    "material" : 5
                }
            ]
        },
        {
            "name" : "lib_rus_tankcrew.010",
            "primitives" : [
                {
                    "attributes" : {
                        "POSITION" : 39,
                        "NORMAL" : 40,
                        "TEXCOORD_0" : 41,
                        "JOINTS_0" : 42,
                        "WEIGHTS_0" : 43
                    },
                    "indices" : 44,
                    "material" : 6
                }
            ]
        }
    ],
    "textures" : [
        {
            "source" : 0
        },
        {
            "source" : 1
        },
        {
            "source" : 0
        },
        {
            "source" : 2
        },
        {
            "source" : 3
        },
        {
            "source" : 4
        },
        {
            "source" : 5
        }
    ],
    "images" : [
        {
            "mimeType" : "image/png",
            "name" : "hhl_01_co",
            "uri" : "hhl_01_co.png"
        },
        {
            "mimeType" : "image/png",
            "name" : "sov_eqipment_2_co",
            "uri" : "sov_eqipment_2_co.png"
        },
        {
            "mimeType" : "image/png",
            "name" : "sov_eqipment_3_co",
            "uri" : "sov_eqipment_3_co.png"
        },
        {
            "mimeType" : "image/png",
            "name" : "sov_tank_crew_0_co",
            "uri" : "sov_tank_crew_0_co.png"
        },
        {
            "mimeType" : "image/png",
            "name" : "sov_eqipment_0_co",
            "uri" : "sov_eqipment_0_co.png"
        },
        {
            "mimeType" : "image/png",
            "name" : "mouth_co",
            "uri" : "mouth_co.png"
        }
    ],
    "skins" : [
        {
            "inverseBindMatrices" : 6,
            "joints" : [
                12,
                3,
                2,
                1,
                0,
                4,
                8,
                7,
                6,
                5,
                9,
                10,
                11,
                109,
                108,
                93,
                90,
                81,
                16,
                14,
                13,
                15,
                51,
                49,
                48,
                47,
                19,
                18,
                17,
                22,
                21,
                20,
                25,
                24,
                23,
                28,
                27,
                26,
                31,
                30,
                29,
                34,
                33,
                32,
                37,
                36,
                35,
                40,
                39,
                38,
                43,
                42,
                41,
                46,
                45,
                44,
                50,
                78,
                77,
                76,
                55,
                52,
                53,
                54,
                56,
                57,
                58,
                59,
                60,
                62,
                61,
                64,
                63,
                66,
                65,
                68,
                67,
                69,
                70,
                79,
                80,
                82,
                83,
                84,
                85,
                86,
                87,
                88,
                89,
                91,
                92,
                94,
                95,
                96,
                97,
                98,
                99,
                100,
                101,
                104,
                103,
                102,
                107,
                106,
                105
            ],
            "name" : "Armature"
        }
    ],
    "accessors" : [
        {
            "bufferView" : 0,
            "componentType" : 5126,
            "count" : 2372,
            "max" : [
                71.78958129882812,
                180.73350524902344,
                9.043596267700195
            ],
            "min" : [
                -73.24270629882812,
                92.75994110107422,
                -17.233417510986328
            ],
            "type" : "VEC3"
        },
        {
            "bufferView" : 1,
            "componentType" : 5126,
            "count" : 2372,
            "type" : "VEC3"
        },
        {
            "bufferView" : 2,
            "componentType" : 5126,
            "count" : 2372,
            "type" : "VEC2"
        },
        {
            "bufferView" : 3,
            "componentType" : 5123,
            "count" : 2372,
            "type" : "VEC4"
        },
        {
            "bufferView" : 4,
            "componentType" : 5126,
            "count" : 2372,
            "type" : "VEC4"
        },
        {
            "bufferView" : 5,
            "componentType" : 5123,
            "count" : 12234,
            "type" : "SCALAR"
        },
        {
            "bufferView" : 6,
            "componentType" : 5126,
            "count" : 105,
            "type" : "MAT4"
        },
        {
            "bufferView" : 7,
            "componentType" : 5126,
            "count" : 1446,
            "max" : [
                10.763654708862305,
                10.240257263183594,
                -161.6199188232422
            ],
            "min" : [
                -12.135311126708984,
                -16.542831420898438,
                -183.8638153076172
            ],
            "type" : "VEC3"
        },
        {
            "bufferView" : 8,
            "componentType" : 5126,
            "count" : 1446,
            "type" : "VEC3"
        },
        {
            "bufferView" : 9,
            "componentType" : 5126,
            "count" : 1446,
            "type" : "VEC2"
        },
        {
            "bufferView" : 10,
            "componentType" : 5123,
            "count" : 4800,
            "type" : "SCALAR"
        },
        {
            "bufferView" : 11,
            "componentType" : 5126,
            "count" : 546,
            "max" : [
                3.9143972396850586,
                5.36749267578125,
                -168.16830444335938
            ],
            "min" : [
                -5.274754047393799,
                2.6778221130371094,
                -170.930908203125
            ],
            "type" : "VEC3"
        },
        {
            "bufferView" : 12,
            "componentType" : 5126,
            "count" : 546,
            "type" : "VEC3"
        },
        {
            "bufferView" : 13,
            "componentType" : 5126,
            "count" : 546,
            "type" : "VEC2"
        },
        {
            "bufferView" : 14,
            "componentType" : 5123,
            "count" : 2880,
            "type" : "SCALAR"
        },
        {
            "bufferView" : 15,
            "componentType" : 5126,
            "count" : 702,
            "max" : [
                7.738203048706055,
                160.07742309570312,
                14.79775619506836
            ],
            "min" : [
                -9.349411010742188,
                123.45277404785156,
                -13.410767555236816
            ],
            "type" : "VEC3"
        },
        {
            "bufferView" : 16,
            "componentType" : 5126,
            "count" : 702,
            "type" : "VEC3"
        },
        {
            "bufferView" : 17,
            "componentType" : 5126,
            "count" : 702,
            "type" : "VEC2"
        },
        {
            "bufferView" : 18,
            "componentType" : 5123,
            "count" : 702,
            "type" : "VEC4"
        },
        {
            "bufferView" : 19,
            "componentType" : 5126,
            "count" : 702,
            "type" : "VEC4"
        },
        {
            "bufferView" : 20,
            "componentType" : 5123,
            "count" : 1680,
            "type" : "SCALAR"
        },
        {
            "bufferView" : 21,
            "componentType" : 5126,
            "count" : 2716,
            "max" : [
                60.23625564575195,
                163.18572998046875,
                12.282800674438477
            ],
            "min" : [
                -60.931270599365234,
                -0.24227936565876007,
                -20.042190551757812
            ],
            "type" : "VEC3"
        },
        {
            "bufferView" : 22,
            "componentType" : 5126,
            "count" : 2716,
            "type" : "VEC3"
        },
        {
            "bufferView" : 23,
            "componentType" : 5126,
            "count" : 2716,
            "type" : "VEC2"
        },
        {
            "bufferView" : 24,
            "componentType" : 5123,
            "count" : 2716,
            "type" : "VEC4"
        },
        {
            "bufferView" : 25,
            "componentType" : 5126,
            "count" : 2716,
            "type" : "VEC4"
        },
        {
            "bufferView" : 26,
            "componentType" : 5123,
            "count" : 11634,
            "type" : "SCALAR"
        },
        {
            "bufferView" : 27,
            "componentType" : 5126,
            "count" : 696,
            "max" : [
                27.838226318359375,
                115.2029037475586,
                3.447869062423706
            ],
            "min" : [
                14.537181854248047,
                78.81027221679688,
                -15.2171049118042
            ],
            "type" : "VEC3"
        },
        {
            "bufferView" : 28,
            "componentType" : 5126,
            "count" : 696,
            "type" : "VEC3"
        },
        {
            "bufferView" : 29,
            "componentType" : 5126,
            "count" : 696,
            "type" : "VEC2"
        },
        {
            "bufferView" : 30,
            "componentType" : 5123,
            "count" : 696,
            "type" : "VEC4"
        },
        {
            "bufferView" : 31,
            "componentType" : 5126,
            "count" : 696,
            "type" : "VEC4"
        },
        {
            "bufferView" : 32,
            "componentType" : 5123,
            "count" : 1968,
            "type" : "SCALAR"
        },
        {
            "bufferView" : 33,
            "componentType" : 5126,
            "count" : 449,
            "max" : [
                -16.287006378173828,
                115.56356811523438,
                0.47463327646255493
            ],
            "min" : [
                -23.562423706054688,
                91.1225814819336,
                -14.166972160339355
            ],
            "type" : "VEC3"
        },
        {
            "bufferView" : 34,
            "componentType" : 5126,
            "count" : 449,
            "type" : "VEC3"
        },
        {
            "bufferView" : 35,
            "componentType" : 5126,
            "count" : 449,
            "type" : "VEC2"
        },
        {
            "bufferView" : 36,
            "componentType" : 5123,
            "count" : 449,
            "type" : "VEC4"
        },
        {
            "bufferView" : 37,
            "componentType" : 5126,
            "count" : 449,
            "type" : "VEC4"
        },
        {
            "bufferView" : 38,
            "componentType" : 5123,
            "count" : 1572,
            "type" : "SCALAR"
        },
        {
            "bufferView" : 39,
            "componentType" : 5126,
            "count" : 357,
            "max" : [
                3.0036168098449707,
                164.2787628173828,
                6.589232921600342
            ],
            "min" : [
                -4.434233665466309,
                160.63539123535156,
                1.1139960289001465
            ],
            "type" : "VEC3"
        },
        {
            "bufferView" : 40,
            "componentType" : 5126,
            "count" : 357,
            "type" : "VEC3"
        },
        {
            "bufferView" : 41,
            "componentType" : 5126,
            "count" : 357,
            "type" : "VEC2"
        },
        {
            "bufferView" : 42,
            "componentType" : 5123,
            "count" : 357,
            "type" : "VEC4"
        },
        {
            "bufferView" : 43,
            "componentType" : 5126,
            "count" : 357,
            "type" : "VEC4"
        },
        {
            "bufferView" : 44,
            "componentType" : 5123,
            "count" : 1302,
            "type" : "SCALAR"
        }
    ],
    "bufferViews" : [
        {
            "buffer" : 0,
            "byteLength" : 28464,
            "byteOffset" : 0
        },
        {
            "buffer" : 0,
            "byteLength" : 28464,
            "byteOffset" : 28464
        },
        {
            "buffer" : 0,
            "byteLength" : 18976,
            "byteOffset" : 56928
        },
        {
            "buffer" : 0,
            "byteLength" : 18976,
            "byteOffset" : 75904
        },
        {
            "buffer" : 0,
            "byteLength" : 37952,
            "byteOffset" : 94880
        },
        {
            "buffer" : 0,
            "byteLength" : 24468,
            "byteOffset" : 132832
        },
        {
            "buffer" : 0,
            "byteLength" : 6720,
            "byteOffset" : 157300
        },
        {
            "buffer" : 0,
            "byteLength" : 17352,
            "byteOffset" : 164020
        },
        {
            "buffer" : 0,
            "byteLength" : 17352,
            "byteOffset" : 181372
        },
        {
            "buffer" : 0,
            "byteLength" : 11568,
            "byteOffset" : 198724
        },
        {
            "buffer" : 0,
            "byteLength" : 9600,
            "byteOffset" : 210292
        },
        {
            "buffer" : 0,
            "byteLength" : 6552,
            "byteOffset" : 219892
        },
        {
            "buffer" : 0,
            "byteLength" : 6552,
            "byteOffset" : 226444
        },
        {
            "buffer" : 0,
            "byteLength" : 4368,
            "byteOffset" : 232996
        },
        {
            "buffer" : 0,
            "byteLength" : 5760,
            "byteOffset" : 237364
        },
        {
            "buffer" : 0,
            "byteLength" : 8424,
            "byteOffset" : 243124
        },
        {
            "buffer" : 0,
            "byteLength" : 8424,
            "byteOffset" : 251548
        },
        {
            "buffer" : 0,
            "byteLength" : 5616,
            "byteOffset" : 259972
        },
        {
            "buffer" : 0,
            "byteLength" : 5616,
            "byteOffset" : 265588
        },
        {
            "buffer" : 0,
            "byteLength" : 11232,
            "byteOffset" : 271204
        },
        {
            "buffer" : 0,
            "byteLength" : 3360,
            "byteOffset" : 282436
        },
        {
            "buffer" : 0,
            "byteLength" : 32592,
            "byteOffset" : 285796
        },
        {
            "buffer" : 0,
            "byteLength" : 32592,
            "byteOffset" : 318388
        },
        {
            "buffer" : 0,
            "byteLength" : 21728,
            "byteOffset" : 350980
        },
        {
            "buffer" : 0,
            "byteLength" : 21728,
            "byteOffset" : 372708
        },
        {
            "buffer" : 0,
            "byteLength" : 43456,
            "byteOffset" : 394436
        },
        {
            "buffer" : 0,
            "byteLength" : 23268,
            "byteOffset" : 437892
        },
        {
            "buffer" : 0,
            "byteLength" : 8352,
            "byteOffset" : 461160
        },
        {
            "buffer" : 0,
            "byteLength" : 8352,
            "byteOffset" : 469512
        },
        {
            "buffer" : 0,
            "byteLength" : 5568,
            "byteOffset" : 477864
        },
        {
            "buffer" : 0,
            "byteLength" : 5568,
            "byteOffset" : 483432
        },
        {
            "buffer" : 0,
            "byteLength" : 11136,
            "byteOffset" : 489000
        },
        {
            "buffer" : 0,
            "byteLength" : 3936,
            "byteOffset" : 500136
        },
        {
            "buffer" : 0,
            "byteLength" : 5388,
            "byteOffset" : 504072
        },
        {
            "buffer" : 0,
            "byteLength" : 5388,
            "byteOffset" : 509460
        },
        {
            "buffer" : 0,
            "byteLength" : 3592,
            "byteOffset" : 514848
        },
        {
            "buffer" : 0,
            "byteLength" : 3592,
            "byteOffset" : 518440
        },
        {
            "buffer" : 0,
            "byteLength" : 7184,
            "byteOffset" : 522032
        },
        {
            "buffer" : 0,
            "byteLength" : 3144,
            "byteOffset" : 529216
        },
        {
            "buffer" : 0,
            "byteLength" : 4284,
            "byteOffset" : 532360
        },
        {
            "buffer" : 0,
            "byteLength" : 4284,
            "byteOffset" : 536644
        },
        {
            "buffer" : 0,
            "byteLength" : 2856,
            "byteOffset" : 540928
        },
        {
            "buffer" : 0,
            "byteLength" : 2856,
            "byteOffset" : 543784
        },
        {
            "buffer" : 0,
            "byteLength" : 5712,
            "byteOffset" : 546640
        },
        {
            "buffer" : 0,
            "byteLength" : 2604,
            "byteOffset" : 552352
        }
    ],
    "buffers" : [
        {
            "byteLength" : 554956,
            "uri" : "tank .bin"
        }
    ]
}
